<?xml version="1.0" encoding="utf-8"?>
<!-- Generator: Adobe Illustrator 17.1.0, SVG Export Plug-In . SVG Version: 6.00 Build 0)  -->
<!DOCTYPE svg PUBLIC "-//W3C//DTD SVG 1.1//EN" "http://www.w3.org/Graphics/SVG/1.1/DTD/svg11.dtd">
<svg version="1.1" id="Capa_1" xmlns="http://www.w3.org/2000/svg" xmlns:xlink="http://www.w3.org/1999/xlink" x="0px" y="0px"
	 viewBox="-0.5 0.5 30 28.9" enable-background="new -0.5 0.5 30 28.9" xml:space="preserve">
<g>
	<path fill="#FFFFFF" d="M15.7,27.9v-3v-0.4c0-0.9-0.7-1.6-1.6-1.6h-0.2c-0.9,0-1.6,0.7-1.6,1.6v3v0.4c0,0.9,0.7,1.6,1.6,1.6l0.2,0
		C15,29.5,15.7,28.8,15.7,27.9z"/>
	<path fill="#FFFFFF" d="M19.7,27.9v-0.7h7.8c1.1,0,2-0.9,2-2V11.8c0-1.1-0.9-2-2-2h-5.6c-1.5-2.7-3.1-5.5-3.1-5.5
		c-0.6-1.5-2.6-3.7-7.4-3.7c-0.4,0-0.8,0-1.2,0.1c-0.1,0-0.2,0-0.3,0c-0.3,0-0.5,0.1-0.8,0.1c-0.1,0-0.2,0-0.3,0.1
		C8.5,0.9,8.3,1,8,1.1C7.9,1.2,7.7,1.2,7.6,1.3C7.5,1.3,7.4,1.4,7.3,1.5C7.1,1.5,7,1.6,6.9,1.7c0,0-0.1,0-0.1,0.1
		c-2.9,2-3,5.5-3,5.5v2.4H1.5c-1.1,0-2,0.9-2,2v13.4c0,1.1,0.9,2,2,2h2.8v0.3h0v0.4c0,0.9,0.7,1.6,1.6,1.6l0.2,0
		c0.9,0,1.6-0.7,1.6-1.6v-0.4v-2.6v-0.4c0-0.9-0.7-1.6-1.6-1.6H5.9c-0.9,0-1.6,0.7-1.6,1.6v1.3H3.2V11.1h14.6
		c0.5,0.7,0.9,1.4,1.2,1.8c1.5,2,2.7,3.8,3.8,4.1c1.4,0.3,2.6-0.8,1.6-2.7c-0.3-0.6-1-1.8-1.8-3.2h3.6l0,14.6h-6.6v-0.9h0v-0.4
		c0-0.9-0.7-1.6-1.6-1.6h-0.2c-0.9,0-1.6,0.7-1.6,1.6v0.4v2.6v0.4c0,0.9,0.7,1.6,1.6,1.6h0.2C19,29.5,19.7,28.8,19.7,27.9z
		 M2.5,18.4c0,0.6-0.5,1-1,1s-1-0.5-1-1c0-0.6,0.5-1,1-1C2.1,17.4,2.5,17.9,2.5,18.4z M27.5,20.6v-4.3c0-0.1,0.1-0.2,0.2-0.2
		c0.1,0,0.2,0.1,0.2,0.2v4.3c0,0.1-0.1,0.2-0.2,0.2C27.6,20.8,27.5,20.7,27.5,20.6z"/>
	<path fill="#FFFFFF" d="M11.7,27.9v-0.4v-3c0-0.9-0.7-1.6-1.6-1.6H9.9c-0.9,0-1.6,0.7-1.6,1.6v0.4v2.6v0.4c0,0.9,0.7,1.6,1.6,1.6
		l0.2,0C11,29.5,11.7,28.8,11.7,27.9z"/>
</g>
</svg>
