<?xml version="1.0" encoding="utf-8"?>
<!-- Generator: Adobe Illustrator 17.1.0, SVG Export Plug-In . SVG Version: 6.00 Build 0)  -->
<!DOCTYPE svg PUBLIC "-//W3C//DTD SVG 1.1//EN" "http://www.w3.org/Graphics/SVG/1.1/DTD/svg11.dtd">
<svg version="1.1" id="Layer_1" xmlns="http://www.w3.org/2000/svg" xmlns:xlink="http://www.w3.org/1999/xlink" x="0px" y="0px"
	 viewBox="0 0 1024 1024" enable-background="new 0 0 1024 1024" xml:space="preserve">
<path fill="#FFFFFF" d="M411.1,389.5c-4.9,0-9.3,1.2-13,4.3c-16,13-34.5,19.1-56.1,19.1c-23.4,0-45.6-8.6-62.3-25.3
	c-16-16-25.3-37.6-25.3-60.5s8.6-43.8,25.3-60.5c17.3-16,39.5-25.3,62.9-25.3c21.6,0,40.7,6.8,56.1,19.1c3.7,3.1,8.6,4.3,13.6,4.3
	c7.4,0,14.2-3.1,18.5-8.6c7.4-9.9,5.6-24.1-3.7-31.5c-24.1-18.5-53.1-28.4-83.9-28.4c-72.8,0.8-132.6,59.4-133.2,131
	C208.8,399.4,268.6,458,341.4,458c30.8,0,59.8-9.9,83.9-28.4c9.3-7.4,11.1-21.6,3.7-31.5C424.7,392.6,417.9,389.5,411.1,389.5"/>
<path fill="#FFFFFF" d="M703,458c32.1,0,64.8-14.8,87-38.9c23.4-24.7,36.4-57.4,36.4-91.9c0-33.9-13-66.6-36.4-91.9
	c-21.6-24.7-54.3-38.9-87-38.9c-33.9,0-66,14.2-88.8,38.9c-23.4,24.7-35.8,57.4-35.8,91.9c0,35.2,13,67.2,35.8,91.9
	C637.6,443.8,669.7,458,703,458 M646.8,266.7c14.8-16,34.5-24.7,56.1-24.7c20.4,0,40.1,8.6,54.9,24.7c14.8,16.1,23.4,38.2,23.4,61.1
	s-8.6,45-23.4,60.5c-14.8,16-34.5,24.7-54.9,24.7c-21.6,0-40.7-8.6-56.1-25.3c-14.8-15.4-23.4-37.6-23.4-60.5
	C623.4,304.4,632,282.2,646.8,266.7"/>
<polyline fill="none" stroke="#FFFFFF" stroke-width="50" stroke-linecap="round" stroke-linejoin="round" stroke-miterlimit="10" points="
	602.4,700.5 668.4,766.5 800.4,634.5 "/>
<rect x="225" y="641.9" fill="#FFFFFF" width="54.9" height="102.4"/>
<polygon fill="#FFFFFF" points="408.2,818.9 307.1,744.3 307.1,641.9 408.2,559.9 "/>
</svg>
