<?xml version="1.0" encoding="utf-8"?>
<!-- Generator: Adobe Illustrator 17.1.0, SVG Export Plug-In . SVG Version: 6.00 Build 0)  -->
<!DOCTYPE svg PUBLIC "-//W3C//DTD SVG 1.1//EN" "http://www.w3.org/Graphics/SVG/1.1/DTD/svg11.dtd">
<svg version="1.1" id="Layer_1" xmlns="http://www.w3.org/2000/svg" xmlns:xlink="http://www.w3.org/1999/xlink" x="0px" y="0px"
	 viewBox="0 0 1024 1024" enable-background="new 0 0 1024 1024" xml:space="preserve">
<g>
	<path fill="#FFFFFF" stroke="#FFFFFF" stroke-width="25" stroke-miterlimit="10" d="M530.4,385.7v7.1c0,5.2-1.7,9.6-5.3,13.3
		s-7.8,5.4-12.9,5.4c-5.1,0-9.5-1.8-13.1-5.4s-5.4-8.1-5.4-13.3v-7.1c0-5,1.8-9.3,5.4-12.9s8-5.4,13.1-5.4c5.1,0,9.4,1.7,12.9,5.3
		C528.6,376.1,530.4,380.5,530.4,385.7z M498.9,492.2c3.5-3.5,7.9-5.3,13.1-5.3s9.6,1.7,13.1,5.3s5.3,8,5.3,13.4v132.7
		c0,5.2-1.7,9.6-5.3,13.1s-7.8,5.3-12.9,5.3c-5.1,0-9.5-1.8-13.1-5.4c-3.6-3.6-5.4-8-5.4-12.9V505.7
		C493.6,500.2,495.4,495.7,498.9,492.2z"/>
</g>
</svg>
