<?xml version="1.0" encoding="utf-8"?>
<!-- Generator: Adobe Illustrator 17.1.0, SVG Export Plug-In . SVG Version: 6.00 Build 0)  -->
<!DOCTYPE svg PUBLIC "-//W3C//DTD SVG 1.1//EN" "http://www.w3.org/Graphics/SVG/1.1/DTD/svg11.dtd">
<svg version="1.1" id="Layer_1" xmlns="http://www.w3.org/2000/svg" xmlns:xlink="http://www.w3.org/1999/xlink" x="0px" y="0px"
	 viewBox="0 0 1024 1024" enable-background="new 0 0 1024 1024" xml:space="preserve">
<g>
	<path fill="#FFFFFF" d="M579.9,369.4c20.4,20.3,30.6,43.7,30.6,70.2c0,26.5-7.6,49.1-22.7,67.7c-15.2,18.6-34.3,30.7-57.3,36.3
		v32.1c0,6.9-2.3,12.7-6.9,17.3c-4.6,4.6-10.3,6.9-17.1,6.9c-6.8,0-12.5-2.3-17.3-6.9c-4.8-4.6-7.2-10.4-7.2-17.3v-51.4
		c0-0.3,0.1-0.5,0.2-0.5c0.2,0,0.2-0.2,0-0.5c-0.2-0.3-0.2-0.7-0.2-1c0-6.3,2.4-11.9,7.2-16.8c4.8-4.9,10.5-7.4,17.1-7.4
		c15.5,0,28.7-5.4,39.8-16.3c11-10.9,16.6-24,16.6-39.3s-5.5-28.3-16.6-39c-11-10.7-24.3-16.1-39.8-16.1c-21.1,0-36.9,9.1-47.5,27.2
		c-3.6,5.9-8.6,9.7-15.1,11.4c-6.4,1.7-12.6,0.8-18.5-2.5c-5.6-3.6-9.2-8.6-10.9-14.8c-1.7-6.3-0.8-12.4,2.5-18.3
		c8.9-15.5,21.3-27.9,37.3-37.3c16-9.4,33.4-14.1,52.1-14.1C534.9,339,559.4,349.1,579.9,369.4z M489.2,634.8
		c4.8-4.8,10.5-7.2,17.3-7.2c6.8,0,12.4,2.4,17.1,7.2c4.6,4.8,6.9,10.5,6.9,17.1v8.9c0,6.9-2.3,12.7-6.9,17.3
		c-4.6,4.6-10.3,6.9-17.1,6.9c-6.8,0-12.5-2.3-17.3-6.9c-4.8-4.6-7.2-10.4-7.2-17.3v-8.9C482,645.3,484.4,639.6,489.2,634.8z"/>
</g>
</svg>
